<svg xmlns="http://www.w3.org/2000/svg" xmlns:xlink="http://www.w3.org/1999/xlink" width="150" zoomAndPan="magnify" viewBox="0 0 112.5 112.499997" height="150" preserveAspectRatio="xMidYMid meet" version="1.0"><defs><clipPath id="f05884c618"><path d="M 0 0 L 112.003906 0 L 112.003906 112.003906 L 0 112.003906 Z M 0 0 " clip-rule="nonzero"/></clipPath></defs><g clip-path="url(#f05884c618)"><path fill="#ffffff" d="M 0 0 L 112.003906 0 L 112.003906 112.003906 L 0 112.003906 Z M 0 0 " fill-opacity="1" fill-rule="nonzero"/><path fill="#000000" d="M 0 0 L 112.003906 0 L 112.003906 112.003906 L 0 112.003906 Z M 0 0 " fill-opacity="1" fill-rule="nonzero"/></g><path stroke-linecap="butt" transform="matrix(0.746681, 0, 0, 0.746681, 11.530173, 93.335172)" fill="none" stroke-linejoin="miter" d="M 0.00144278 5.002322 L 84.432328 5.002322 " stroke="#ffffff" stroke-width="10" stroke-opacity="1" stroke-miterlimit="4"/><path stroke-linecap="butt" transform="matrix(0, 0.746681, -0.746681, 0, 18.993158, 36.991905)" fill="none" stroke-linejoin="miter" d="M 0.000378722 5.002597 L 82.464227 5.002597 " stroke="#ffffff" stroke-width="10" stroke-opacity="1" stroke-miterlimit="4"/><path stroke-linecap="butt" transform="matrix(-0.746681, 0, 0, -0.746681, 100.793599, 18.659379)" fill="none" stroke-linejoin="miter" d="M 0.000844118 5.000255 L 84.43173 5.000255 " stroke="#ffffff" stroke-width="10" stroke-opacity="1" stroke-miterlimit="4"/><path stroke-linecap="butt" transform="matrix(0, -0.746681, 0.746681, 0, 93.330616, 75.002648)" fill="none" stroke-linejoin="miter" d="M -0.00168466 4.997961 L 82.462164 4.997961 " stroke="#ffffff" stroke-width="10" stroke-opacity="1" stroke-miterlimit="4"/></svg>